<svg width="1000" height="1000" xmlns="http://www.w3.org/2000/svg">

 <g>
  <title>background</title>
  <rect fill="none" id="canvas_background" height="1002" width="1002" y="-1" x="-1"/>
 </g>
 <g>
  <title>Layer 1</title>
  <path fill="#0a53a0" stroke-width="1.114807px" stroke-linecap="round" stroke-linejoin="round" id="path5888" d="m189.982607,223.516992l235.477716,101.892682c0,0 32.187622,-14.217584 63.528131,-27.6453c0,0 5.929333,-3.159464 5.929333,-9.478384c0,0 0,-7.108795 -7.623406,-10.268259c0,0 -105.880269,-45.812215 -211.760461,-90.834548l189.737356,-81.356164l16.093849,-3.159464l15.246736,3.159464l284.606148,122.429172c0,0 28.799399,12.637848 28.799399,29.225028c0,0 0,16.587187 -28.799399,28.435167l-222.77209,95.573747l222.77209,95.573747c0,0 28.799399,11.847988 28.799399,30.014896c0,0 0,15.797312 -28.799399,29.225028l-284.606148,120.849451c0,0 -5.929257,4.739192 -15.246736,4.739192l-16.093849,-4.739192l-189.737356,-80.566296l211.760461,-90.044688l7.623406,-10.268259c0,0 0,-4.739192 -5.929333,-10.268252l-63.528131,-26.855432l-235.477716,101.892675l0,-115.320391l102.492122,-44.23248l-102.492122,-42.652744l0,-115.320398"/>
  <g stroke="null" id="svg_1">
   <path fill="#0a53a0" stroke-width="1.114807px" stroke-linecap="round" stroke-linejoin="round" id="path5874" d="m582.170221,757.728273l0,100.442995c0,0 0,40.980738 -39.901377,41.382511l-64.924225,0c0,0 -8.791829,-0.401773 -12.511454,-8.437211l-11.496989,-21.695688l73.377909,0c0,0 16.231079,-0.401769 16.231079,-15.267334l0,-96.425272l39.225057,0"/>
   <path fill="#0a53a0" stroke-width="1.114807px" stroke-linecap="round" stroke-linejoin="round" id="path5876" d="m381.987138,757.728273l73.716054,141.825506l-45.988016,0l-12.511424,-25.713407l-67.629415,0l10.820699,-21.695685c0,0 4.05777,-8.437211 12.511424,-8.437211l29.756968,0l-26.037343,-52.230353l-52.412801,108.076657l-45.987986,0l73.716054,-141.825506l50.045786,0"/>
   <path fill="#0a53a0" stroke-width="1.114807px" stroke-linecap="round" stroke-linejoin="round" id="path5878" d="m702.212437,757.728273l73.039764,141.825506l-45.311696,0l-12.849599,-25.713407l-67.967559,0l11.158844,-21.695685c0,0 4.395915,-8.437211 12.849599,-8.437211l29.756938,0l-26.037313,-52.230353l-53.089091,108.076657l-45.988016,0l73.716054,-141.825506l50.722076,0"/>
   <path fill="#0a53a0" stroke-width="1.114807px" stroke-linecap="round" stroke-linejoin="round" id="path5880" d="m901.719231,757.728273l0,100.442995c0,0 -0.338145,40.980738 -39.225057,41.382511l-65.600545,0c0,0 -9.129974,-0.401773 -12.849599,-8.437211l-11.158844,-21.695688l73.716054,0c0,0 16.569224,-0.401769 16.569224,-15.267334l0,-96.425272l38.548767,0"/>
   <path fill="#0a53a0" stroke-width="1.114807px" stroke-linecap="round" stroke-linejoin="round" id="path5884" d="m98.280765,757.723491l0,141.827067l39.22351,0l0,-60.264959l0,-52.62907l67.631629,0c13.864034,0 13.867552,12.050739 13.867583,12.050739c0,11.249615 -13.867552,11.251111 -13.867583,11.251111l-43.621699,0c-8.115509,0 -12.512091,7.635889 -12.512091,7.635889l-11.497838,21.691331l66.958645,0c14.540324,0 14.540536,14.866329 14.540566,14.866333c0,14.865565 -14.540597,15.271775 -14.540566,15.271778l-42.948716,0c-8.115509,-0.401769 -12.512091,8.030072 -12.512091,8.030072l-11.497838,22.096776l67.631629,0c57.485005,-0.401773 57.489282,-38.562366 57.489282,-38.562366c0,-24.909865 -27.052658,-33.753333 -27.052658,-33.753333c27.051748,-8.035438 27.052658,-32.942438 27.052658,-32.942442c0,-36.963026 -57.489252,-36.568926 -57.489282,-36.568926l-106.855139,0z"/>
  </g>
 </g>
</svg>